<svg preserveAspectRatio="none" overflow="visible" style="display: block;" width="26" height="26" viewBox="0 0 26 26" fill="none" xmlns="http://www.w3.org/2000/svg">
<g id="passport_24dp_405940_FILL0_wght400_GRAD0_opsz24 1">
<path id="Vector" d="M9.20833 20.0417H16.7917V18.4167H9.20833V20.0417ZM13 16.7917C14.4986 16.7917 15.776 16.2635 16.8323 15.2073C17.8885 14.151 18.4167 12.8736 18.4167 11.375C18.4167 9.87639 17.8885 8.59896 16.8323 7.54271C15.776 6.48646 14.4986 5.95833 13 5.95833C11.5014 5.95833 10.224 6.48646 9.16771 7.54271C8.11146 8.59896 7.58333 9.87639 7.58333 11.375C7.58333 12.8736 8.11146 14.151 9.16771 15.2073C10.224 16.2635 11.5014 16.7917 13 16.7917ZM13 14.9771C12.8556 14.7785 12.7021 14.449 12.5396 13.9885C12.3771 13.5281 12.2688 12.9278 12.2146 12.1875H13.7854C13.7313 12.9278 13.6229 13.5281 13.4604 13.9885C13.2979 14.449 13.1444 14.7785 13 14.9771ZM11.05 14.625C10.6167 14.3542 10.2465 14.0111 9.93958 13.5958C9.63264 13.1806 9.425 12.7111 9.31667 12.1875H10.5896C10.6257 12.6389 10.6799 13.0677 10.7521 13.474C10.8243 13.8802 10.9236 14.2639 11.05 14.625ZM14.95 14.625C15.0764 14.2639 15.1757 13.8802 15.2479 13.474C15.3201 13.0677 15.3743 12.6389 15.4104 12.1875H16.6833C16.575 12.7111 16.3674 13.1806 16.0604 13.5958C15.7535 14.0111 15.3833 14.3542 14.95 14.625ZM9.31667 10.5625C9.425 10.0389 9.63264 9.56944 9.93958 9.15417C10.2465 8.73889 10.6167 8.39583 11.05 8.125C10.9236 8.48611 10.8243 8.86979 10.7521 9.27604C10.6799 9.68229 10.6257 10.1111 10.5896 10.5625H9.31667ZM12.2146 10.5625C12.2688 9.82222 12.3771 9.22187 12.5396 8.76146C12.7021 8.30104 12.8556 7.97153 13 7.77292C13.1444 7.97153 13.2979 8.30104 13.4604 8.76146C13.6229 9.22187 13.7313 9.82222 13.7854 10.5625H12.2146ZM15.4104 10.5625C15.3743 10.1111 15.3201 9.68229 15.2479 9.27604C15.1757 8.86979 15.0764 8.48611 14.95 8.125C15.3833 8.39583 15.7535 8.73889 16.0604 9.15417C16.3674 9.56944 16.575 10.0389 16.6833 10.5625H15.4104ZM4.33333 23.8333V2.16667H19.5C20.0958 2.16667 20.6059 2.37882 21.0302 2.80312C21.4545 3.22743 21.6667 3.7375 21.6667 4.33333V21.6667C21.6667 22.2625 21.4545 22.7726 21.0302 23.1969C20.6059 23.6212 20.0958 23.8333 19.5 23.8333H4.33333ZM6.5 21.6667H19.5V4.33333H6.5V21.6667Z" fill="#195AA7"/>
</g>
</svg>
