<svg preserveAspectRatio="none" overflow="visible" style="display: block;" width="45" height="45" viewBox="0 0 45 45" fill="none" xmlns="http://www.w3.org/2000/svg">
<g id="Group 212">
<path id="Vector" d="M22.5 45C34.9264 45 45 34.9264 45 22.5C45 10.0736 34.9264 0 22.5 0C10.0736 0 0 10.0736 0 22.5C0 34.9264 10.0736 45 22.5 45Z" fill="#E0F2FE"/>
<g id="vaccines_24dp_405940_FILL0_wght400_GRAD0_opsz24 1">
<path id="Vector_2" d="M19 33.5L17 32V28H16C15.45 28 14.9792 27.8042 14.5875 27.4125C14.1958 27.0208 14 26.55 14 26V18.5C13.7167 18.5 13.4792 18.4042 13.2875 18.2125C13.0958 18.0208 13 17.7833 13 17.5C13 17.2167 13.0958 16.9792 13.2875 16.7875C13.4792 16.5958 13.7167 16.5 14 16.5H17V15H16.5C16.2167 15 15.9792 14.9042 15.7875 14.7125C15.5958 14.5208 15.5 14.2833 15.5 14C15.5 13.7167 15.5958 13.4792 15.7875 13.2875C15.9792 13.0958 16.2167 13 16.5 13H19.5C19.7833 13 20.0208 13.0958 20.2125 13.2875C20.4042 13.4792 20.5 13.7167 20.5 14C20.5 14.2833 20.4042 14.5208 20.2125 14.7125C20.0208 14.9042 19.7833 15 19.5 15H19V16.5H22C22.2833 16.5 22.5208 16.5958 22.7125 16.7875C22.9042 16.9792 23 17.2167 23 17.5C23 17.7833 22.9042 18.0208 22.7125 18.2125C22.5208 18.4042 22.2833 18.5 22 18.5V26C22 26.55 21.8042 27.0208 21.4125 27.4125C21.0208 27.8042 20.55 28 20 28H19V33.5ZM16 26H20V24.5H18.25C18.05 24.5 17.875 24.425 17.725 24.275C17.575 24.125 17.5 23.95 17.5 23.75C17.5 23.55 17.575 23.375 17.725 23.225C17.875 23.075 18.05 23 18.25 23H20V21.5H18.25C18.05 21.5 17.875 21.425 17.725 21.275C17.575 21.125 17.5 20.95 17.5 20.75C17.5 20.55 17.575 20.375 17.725 20.225C17.875 20.075 18.05 20 18.25 20H20V18.5H16V26ZM26 33C25.45 33 24.9792 32.8042 24.5875 32.4125C24.1958 32.0208 24 31.55 24 31V24.5C24 24.0167 24.0833 23.6167 24.25 23.3C24.4167 22.9833 24.5917 22.7083 24.775 22.475C24.9583 22.2417 25.125 22.0542 25.275 21.9125C25.425 21.7708 25.5 21.6333 25.5 21.5V21C25.2167 21 24.9792 20.9042 24.7875 20.7125C24.5958 20.5208 24.5 20.2833 24.5 20C24.5 19.7167 24.5958 19.4792 24.7875 19.2875C24.9792 19.0958 25.2167 19 25.5 19H30.5C30.7833 19 31.0208 19.0958 31.2125 19.2875C31.4042 19.4792 31.5 19.7167 31.5 20C31.5 20.2833 31.4042 20.5208 31.2125 20.7125C31.0208 20.9042 30.7833 21 30.5 21V21.5C30.5 21.6333 30.5833 21.7833 30.75 21.95C30.9167 22.1167 31.1 22.3167 31.3 22.55C31.4833 22.7833 31.6458 23.0583 31.7875 23.375C31.9292 23.6917 32 24.0667 32 24.5V31C32 31.55 31.8042 32.0208 31.4125 32.4125C31.0208 32.8042 30.55 33 30 33H26ZM26 25H30V24.5C30 24.25 29.925 24.0333 29.775 23.85C29.625 23.6667 29.4583 23.4667 29.275 23.25C29.0917 23.0333 28.9167 22.7917 28.75 22.525C28.5833 22.2583 28.5 21.9167 28.5 21.5V21H27.5V21.5C27.5 21.9 27.4208 22.2333 27.2625 22.5C27.1042 22.7667 26.9333 23.0083 26.75 23.225C26.5667 23.4417 26.3958 23.6458 26.2375 23.8375C26.0792 24.0292 26 24.25 26 24.5V25ZM26 28H30V26.5H26V28ZM26 31H30V29.5H26V31Z" fill="#195AA7"/>
</g>
</g>
</svg>
