<svg width="59" height="81" viewBox="0 0 59 81" fill="none" xmlns="http://www.w3.org/2000/svg">
<path d="M0.4375 73.8789C0.597005 73.8822 0.735352 73.8805 0.852539 73.874C0.969727 73.8708 1.07227 73.8594 1.16016 73.8398C1.2513 73.8236 1.33105 73.7992 1.39941 73.7666C1.47103 73.7373 1.54102 73.6982 1.60938 73.6494C1.67773 73.6006 1.73633 73.5469 1.78516 73.4883C1.83724 73.4297 1.87956 73.3597 1.91211 73.2783C1.94792 73.2002 1.97396 73.1074 1.99023 73C2.00977 72.8958 2.01953 72.7721 2.01953 72.6289V67.7021H3.18652V72.8682C3.18652 73.1025 3.16211 73.3044 3.11328 73.4736C3.06445 73.6462 3.00423 73.7926 2.93262 73.9131C2.861 74.0335 2.78613 74.1312 2.70801 74.2061C2.63314 74.2842 2.56641 74.346 2.50781 74.3916C2.29297 74.5446 2.01953 74.652 1.6875 74.7139C1.35547 74.779 0.938802 74.8018 0.4375 74.7822V73.8789ZM5.86719 72.9951C5.72721 72.9951 5.59212 72.9919 5.46191 72.9854C5.33171 72.9756 5.20475 72.9561 5.08105 72.9268C4.95736 72.8975 4.83691 72.8551 4.71973 72.7998C4.60579 72.7412 4.49512 72.6631 4.3877 72.5654C4.31934 72.5036 4.2526 72.432 4.1875 72.3506C4.12565 72.266 4.07031 72.1683 4.02148 72.0576C3.97591 71.9469 3.93848 71.82 3.90918 71.6768C3.88314 71.5335 3.87012 71.3708 3.87012 71.1885V65.998H5.03711V70.8369C5.03711 71.0127 5.05013 71.182 5.07617 71.3447C5.10221 71.5075 5.16243 71.6523 5.25684 71.7793C5.34147 71.8932 5.44889 71.9746 5.5791 72.0234C5.70931 72.0723 5.88346 72.0967 6.10156 72.0967H6.67285V72.9951H5.86719ZM6.5752 73V72.1016H7.48828V65.998H8.66016L8.65527 68.4004C8.73991 68.2832 8.84082 68.1855 8.95801 68.1074C9.07845 68.026 9.20378 67.9593 9.33398 67.9072C9.46745 67.8551 9.60091 67.8161 9.73438 67.79C9.87109 67.7607 9.99805 67.7396 10.1152 67.7266C10.2324 67.7135 10.3366 67.707 10.4277 67.707C10.5221 67.7038 10.5921 67.7021 10.6377 67.7021H12.918C13.0612 67.7021 13.2109 67.7119 13.3672 67.7314C13.5234 67.751 13.6764 67.79 13.8262 67.8486C13.9792 67.9072 14.1257 67.9919 14.2656 68.1025C14.4089 68.21 14.5374 68.3532 14.6514 68.5322C14.7425 68.682 14.8125 68.8366 14.8613 68.9961C14.9134 69.1523 14.9508 69.3102 14.9736 69.4697C14.9964 69.6292 15.0094 69.7887 15.0127 69.9482C15.016 70.1077 15.0176 70.2624 15.0176 70.4121C15.0176 70.5749 15.0143 70.7311 15.0078 70.8809C15.0013 71.0273 14.9867 71.1706 14.9639 71.3105C14.9411 71.4473 14.9085 71.5824 14.8662 71.7158C14.8239 71.846 14.7669 71.9746 14.6953 72.1016H15.5352V73H6.5752ZM10.2812 68.6006C9.81576 68.6169 9.44303 68.7601 9.16309 69.0303C8.88639 69.3005 8.71549 69.6862 8.65039 70.1875L8.64551 72.1016H12.4199C12.5794 72.1016 12.721 72.0934 12.8447 72.0771C12.9684 72.0609 13.0775 72.0348 13.1719 71.999C13.2695 71.96 13.3525 71.9111 13.4209 71.8525C13.4925 71.7907 13.5527 71.7158 13.6016 71.6279C13.7025 71.4619 13.7627 71.2764 13.7822 71.0713C13.8018 70.863 13.8115 70.6465 13.8115 70.4219C13.8115 70.0833 13.7936 69.8001 13.7578 69.5723C13.7253 69.3444 13.6585 69.1605 13.5576 69.0205C13.486 68.9229 13.403 68.8464 13.3086 68.791C13.2142 68.7357 13.1165 68.6934 13.0156 68.6641C12.9147 68.6348 12.8138 68.6169 12.7129 68.6104C12.612 68.6038 12.5208 68.6006 12.4395 68.6006H10.2812ZM19.71 73.0586C19.5505 73.0586 19.3763 73.0537 19.1875 73.0439C18.9987 73.0342 18.8083 73.0114 18.6162 72.9756C18.4274 72.9365 18.2419 72.8796 18.0596 72.8047C17.8805 72.7298 17.7178 72.6257 17.5713 72.4922C17.5615 72.4857 17.5469 72.4727 17.5273 72.4531C17.4167 72.5703 17.2946 72.6647 17.1611 72.7363C17.0309 72.8079 16.8958 72.8633 16.7559 72.9023C16.6191 72.9414 16.4808 72.9674 16.3408 72.9805C16.2008 72.9935 16.0674 73 15.9404 73H15.418V72.1016H15.6133C15.6914 72.1016 15.7809 72.0983 15.8818 72.0918C15.9827 72.0853 16.0837 72.0658 16.1846 72.0332C16.2887 71.9974 16.388 71.9437 16.4824 71.8721C16.5768 71.7972 16.6566 71.693 16.7217 71.5596C16.751 71.4977 16.7835 71.4033 16.8193 71.2764C16.8551 71.1494 16.8796 70.9606 16.8926 70.71C16.8893 70.6449 16.8877 70.5846 16.8877 70.5293C16.8877 70.474 16.8877 70.4202 16.8877 70.3682C16.8877 70.2217 16.8942 70.0524 16.9072 69.8604C16.9202 69.6683 16.9495 69.473 16.9951 69.2744C17.0439 69.0758 17.1123 68.8822 17.2002 68.6934C17.2913 68.5046 17.415 68.3402 17.5713 68.2002C17.7178 68.0635 17.8805 67.9577 18.0596 67.8828C18.2419 67.8079 18.4274 67.7526 18.6162 67.7168C18.8083 67.681 18.9987 67.6598 19.1875 67.6533C19.3763 67.6436 19.5505 67.6387 19.71 67.6387C19.8695 67.6387 20.042 67.6436 20.2275 67.6533C20.4163 67.6598 20.6051 67.681 20.7939 67.7168C20.986 67.7526 21.1732 67.8079 21.3555 67.8828C21.5378 67.9577 21.7021 68.0635 21.8486 68.2002C22.0049 68.3402 22.127 68.5046 22.2148 68.6934C22.306 68.8822 22.3743 69.0758 22.4199 69.2744C22.4655 69.4697 22.4948 69.6602 22.5078 69.8457C22.5208 70.0312 22.5273 70.1924 22.5273 70.3291C22.5273 70.736 22.4932 71.0843 22.4248 71.374C22.3564 71.6637 22.2653 71.9062 22.1514 72.1016H23.0889V73H21.2578L19.71 73.0586ZM18.4307 68.9619C18.3298 69.0856 18.2565 69.2207 18.2109 69.3672C18.1686 69.5137 18.1393 69.665 18.123 69.8213C18.11 69.9775 18.1051 70.1322 18.1084 70.2852C18.1117 70.4382 18.11 70.583 18.1035 70.7197C18.1133 70.8955 18.141 71.0697 18.1865 71.2422C18.2321 71.4147 18.3167 71.5742 18.4404 71.7207C18.5283 71.8184 18.6227 71.8965 18.7236 71.9551C18.8278 72.0137 18.9336 72.0576 19.041 72.0869C19.1517 72.1162 19.264 72.1357 19.3779 72.1455C19.4919 72.1553 19.6025 72.1602 19.71 72.1602C19.8206 72.1602 19.9313 72.1553 20.042 72.1455C20.1559 72.1357 20.2666 72.1162 20.374 72.0869C20.4814 72.0576 20.5856 72.0137 20.6865 71.9551C20.7874 71.8965 20.8818 71.8184 20.9697 71.7207C21.0576 71.623 21.1243 71.5205 21.1699 71.4131C21.2188 71.3024 21.2546 71.1885 21.2773 71.0713C21.3001 70.9541 21.3132 70.8353 21.3164 70.7148C21.3197 70.5944 21.3213 70.4756 21.3213 70.3584V70.041C21.3213 69.9531 21.3164 69.862 21.3066 69.7676C21.2969 69.6699 21.279 69.5739 21.2529 69.4795C21.2269 69.3818 21.1911 69.2891 21.1455 69.2012C21.1032 69.1133 21.0479 69.0335 20.9795 68.9619C20.8916 68.8675 20.7956 68.7926 20.6914 68.7373C20.5905 68.682 20.4847 68.6396 20.374 68.6104C20.2633 68.5811 20.151 68.5632 20.0371 68.5566C19.9264 68.5469 19.8174 68.542 19.71 68.542C19.6156 68.542 19.5098 68.5469 19.3926 68.5566C19.2786 68.5632 19.1631 68.5811 19.0459 68.6104C18.932 68.6396 18.8213 68.682 18.7139 68.7373C18.6064 68.7926 18.512 68.8675 18.4307 68.9619ZM23.001 72.9951V72.0967H23.5723C23.7904 72.0967 23.9645 72.0723 24.0947 72.0234C24.2249 71.9746 24.3324 71.8932 24.417 71.7793C24.5114 71.6523 24.5716 71.5075 24.5977 71.3447C24.6237 71.182 24.6367 71.0127 24.6367 70.8369V65.998H25.8037V71.1885C25.8037 71.3708 25.7891 71.5335 25.7598 71.6768C25.7337 71.82 25.6963 71.9469 25.6475 72.0576C25.6019 72.1683 25.5465 72.266 25.4814 72.3506C25.4196 72.432 25.3545 72.5036 25.2861 72.5654C25.1787 72.6631 25.0664 72.7412 24.9492 72.7998C24.8353 72.8551 24.7165 72.8975 24.5928 72.9268C24.4691 72.9561 24.3421 72.9756 24.2119 72.9854C24.0817 72.9919 23.9466 72.9951 23.8066 72.9951H23.001ZM26.6729 65.998H27.8447V73H26.6729V65.998ZM38.0352 73C37.8626 73 37.682 72.9854 37.4932 72.9561C37.3109 72.9268 37.1383 72.8389 36.9756 72.6924C36.9268 72.6436 36.8779 72.585 36.8291 72.5166C36.7803 72.4482 36.7363 72.3669 36.6973 72.2725C36.6582 72.1748 36.6257 72.0641 36.5996 71.9404C36.5768 71.8167 36.5654 71.6768 36.5654 71.5205C36.5654 71.5107 36.5654 71.4977 36.5654 71.4814C36.5654 71.4619 36.5654 71.4261 36.5654 71.374C36.5654 71.3187 36.5654 71.2389 36.5654 71.1348C36.5654 71.0306 36.5654 70.8874 36.5654 70.7051C36.5654 70.5228 36.5654 70.2949 36.5654 70.0215C36.5687 69.7448 36.5703 69.4079 36.5703 69.0107C36.5736 68.9912 36.5736 68.9668 36.5703 68.9375C36.5671 68.9049 36.5622 68.8724 36.5557 68.8398C36.5492 68.8073 36.5394 68.7764 36.5264 68.7471C36.5166 68.7178 36.5036 68.695 36.4873 68.6787C36.4482 68.6396 36.3945 68.6169 36.3262 68.6104C36.2611 68.6038 36.2025 68.6006 36.1504 68.6006H36.0088C35.9176 68.6006 35.8314 68.6169 35.75 68.6494C35.6719 68.682 35.6084 68.7259 35.5596 68.7812C35.501 68.8529 35.4652 68.9408 35.4521 69.0449C35.4391 69.1491 35.4326 69.2467 35.4326 69.3379L35.4229 71.0371C35.4229 71.1999 35.4147 71.3545 35.3984 71.501C35.3854 71.6475 35.3577 71.7858 35.3154 71.916C35.2764 72.043 35.221 72.1634 35.1494 72.2773C35.0811 72.3913 34.9915 72.4971 34.8809 72.5947C34.7018 72.751 34.5033 72.8568 34.2852 72.9121C34.0703 72.9674 33.8099 72.9951 33.5039 72.9951H32.4932C32.1872 72.9951 31.9251 72.9674 31.707 72.9121C31.4922 72.8568 31.2952 72.751 31.1162 72.5947C31.0055 72.4971 30.9144 72.3913 30.8428 72.2773C30.7744 72.1634 30.7191 72.043 30.6768 71.916C30.6377 71.7858 30.61 71.6475 30.5938 71.501C30.5807 71.3545 30.5742 71.1999 30.5742 71.0371V69.4453H31.7461V70.8271C31.7461 71.0615 31.7591 71.2503 31.7852 71.3936C31.8145 71.5335 31.8665 71.654 31.9414 71.7549C32.0488 71.8981 32.1807 71.9909 32.3369 72.0332C32.4932 72.0755 32.6787 72.0967 32.8936 72.0967H33.1279C33.3428 72.0967 33.5283 72.0755 33.6846 72.0332C33.8408 71.9909 33.9727 71.8981 34.0801 71.7549C34.1549 71.654 34.2054 71.5335 34.2314 71.3936C34.2607 71.2503 34.2754 71.0615 34.2754 70.8271L34.2607 69.2695C34.2607 69.1751 34.2656 69.0742 34.2754 68.9668C34.2852 68.8594 34.3014 68.7487 34.3242 68.6348C34.3698 68.4004 34.4788 68.1986 34.6514 68.0293C34.7425 67.9382 34.8597 67.86 35.0029 67.7949C35.1494 67.7266 35.335 67.6924 35.5596 67.6924L36.8291 67.7021C36.8714 67.7021 36.9202 67.7038 36.9756 67.707C37.0342 67.707 37.0928 67.7135 37.1514 67.7266C37.21 67.7396 37.2686 67.7591 37.3271 67.7852C37.3857 67.8079 37.4395 67.8421 37.4883 67.8877C37.6055 67.9951 37.6771 68.1335 37.7031 68.3027C37.7161 68.3841 37.7243 68.4557 37.7275 68.5176C37.734 68.5762 37.7373 68.6266 37.7373 68.6689V71.3789C37.7373 71.5352 37.7552 71.6589 37.791 71.75C37.8268 71.8379 37.8691 71.9046 37.918 71.9502C37.9896 72.0218 38.0742 72.0658 38.1719 72.082C38.2695 72.0951 38.3672 72.1016 38.4648 72.1016H38.6113V73H38.0352ZM31.6582 74.7432V73.8105H32.8252V74.7432H31.6582ZM33.2305 74.7432V73.8105H34.3975V74.7432H33.2305ZM38.4941 73.0049V72.1064H39.3535V67.707H40.5254V72.1064H42.542V67.707H43.7139V72.1064H44.8027C44.8548 72.1064 44.9118 72.1048 44.9736 72.1016C45.0355 72.0951 45.0973 72.0837 45.1592 72.0674C45.2243 72.0511 45.2861 72.0267 45.3447 71.9941C45.4066 71.9616 45.4619 71.916 45.5107 71.8574C45.5596 71.8053 45.5986 71.7484 45.6279 71.6865C45.6572 71.6214 45.68 71.5563 45.6963 71.4912C45.7126 71.4229 45.7223 71.3561 45.7256 71.291C45.7321 71.2259 45.7354 71.1641 45.7354 71.1055V67.707H46.9023V71.2861C46.9023 71.5856 46.8503 71.8574 46.7461 72.1016H47.498V73L38.4941 73.0049ZM47.3809 73V72.1016H52.5811C52.7275 72.1016 52.8464 72.0755 52.9375 72.0234C53.0286 71.9681 53.1003 71.8932 53.1523 71.7988C53.2077 71.7044 53.2451 71.5954 53.2646 71.4717C53.2842 71.3447 53.2972 71.208 53.3037 71.0615C53.2972 70.915 53.2842 70.7799 53.2646 70.6562C53.2451 70.5326 53.2077 70.4268 53.1523 70.3389C53.1003 70.2477 53.0286 70.1761 52.9375 70.124C52.8464 70.0719 52.7275 70.0459 52.5811 70.0459H49.6172C49.2754 70.0459 48.9938 69.9987 48.7725 69.9043C48.5544 69.8066 48.3818 69.6829 48.2549 69.5332C48.1279 69.3802 48.0417 69.2126 47.9961 69.0303C47.9538 68.8447 47.9375 68.6657 47.9473 68.4932C47.957 68.3174 47.9814 68.1416 48.0205 67.9658C48.0628 67.7868 48.1328 67.6208 48.2305 67.4678C48.3314 67.3148 48.4665 67.1797 48.6357 67.0625C48.8083 66.9421 49.028 66.8509 49.2949 66.7891L52.7812 65.9883V66.8965L49.6855 67.6973C49.5488 67.7331 49.4349 67.7803 49.3438 67.8389C49.2559 67.8942 49.1842 67.9577 49.1289 68.0293C49.0768 68.0977 49.0378 68.1709 49.0117 68.249C48.9889 68.3239 48.9759 68.3971 48.9727 68.4688C48.9629 68.6348 49.0068 68.7812 49.1045 68.9082C49.2054 69.0319 49.3763 69.1117 49.6172 69.1475H53.0498C53.3167 69.1475 53.5413 69.1898 53.7236 69.2744C53.9092 69.3558 54.0589 69.4762 54.1729 69.6357C54.29 69.7952 54.3747 69.9938 54.4268 70.2314C54.4788 70.4658 54.5098 70.7344 54.5195 71.0371C54.5195 71.0436 54.5179 71.0485 54.5146 71.0518C54.5146 71.055 54.5146 71.0583 54.5146 71.0615C54.5146 71.0648 54.5146 71.0794 54.5146 71.1055C54.5146 71.1283 54.5146 71.1543 54.5146 71.1836C54.5146 71.2129 54.5146 71.2406 54.5146 71.2666C54.5146 71.2926 54.5146 71.3057 54.5146 71.3057C54.5081 71.4619 54.4967 71.6068 54.4805 71.7402C54.4674 71.8704 54.4463 71.9909 54.417 72.1016H54.915V73H47.3809ZM54.793 72.9951V72.0967H56.0674C56.2855 72.0967 56.4596 72.0723 56.5898 72.0234C56.7201 71.9746 56.8275 71.8932 56.9121 71.7793C57.0065 71.6523 57.0667 71.5075 57.0928 71.3447C57.1188 71.182 57.1318 71.0127 57.1318 70.8369V67.6973H58.2988V71.1885C58.2988 71.3708 58.2842 71.5335 58.2549 71.6768C58.2288 71.82 58.1914 71.9469 58.1426 72.0576C58.097 72.1683 58.0417 72.266 57.9766 72.3506C57.9147 72.432 57.8496 72.5036 57.7812 72.5654C57.6738 72.6631 57.5615 72.7412 57.4443 72.7998C57.3304 72.8551 57.2116 72.8975 57.0879 72.9268C56.9642 72.9561 56.8372 72.9756 56.707 72.9854C56.5768 72.9919 56.4417 72.9951 56.3018 72.9951H54.793ZM55.5693 66.9111V65.9785H56.7363V66.9111H55.5693ZM57.1416 66.9111V65.9785H58.3086V66.9111H57.1416Z" fill="#22509E"/>
<rect width="59" height="59" rx="15" fill="#22509E"/>
<path d="M48.7748 21.7694H41.6074V14.5352C41.6074 14.3281 41.4393 14.16 41.2322 14.16H33.6236C33.4165 14.16 33.2484 14.3281 33.2484 14.5352V21.7694H26.5222V14.5352C26.5222 14.3281 26.3541 14.16 26.147 14.16H18.5384C18.3313 14.16 18.1632 14.3281 18.1632 14.5352V21.7694H10.9951C10.788 21.7694 10.6199 21.9375 10.6199 22.1446V29.7532C10.6199 29.9603 10.788 30.1284 10.9951 30.1284H18.6037C18.8108 30.1284 18.9789 29.9603 18.9789 29.7532V22.5198H25.7051V29.7532C25.7051 29.9603 25.8731 30.1284 26.0802 30.1284H33.6889C33.896 30.1284 34.064 29.9603 34.064 29.7532V22.5198H40.7902V29.7532C40.7902 29.9603 40.9583 30.1284 41.1654 30.1284H48.774C48.9811 30.1284 49.1492 29.9603 49.1492 29.7532V22.1446C49.15 21.9367 48.9819 21.7694 48.7748 21.7694Z" fill="#F7F8FA"/>
<path d="M10.9951 33.7368H14.7139V43.8494H17.4414V33.7368H21.1595V31.443H10.9951V33.7368Z" fill="#F7F8FA"/>
<path d="M44.6459 31.443H41.658L39.1383 35.4041L36.7056 31.443H33.5436L37.54 37.3513L33.3373 43.6393L28.7766 31.4437H25.9793L21.27 43.8502H24.0321L25.0053 41.0873H29.644L30.5827 43.8502H33.1954H33.4146H36.2704L39.0332 39.5589L41.7435 43.8502H44.9933L40.6668 37.3693L44.6459 31.443ZM25.7181 39.0531L27.3337 34.5015H27.3682L28.9319 39.0531H25.7181Z" fill="#F7F8FA"/>
<path d="M48.822 31.443H46.0945V43.8494H48.822V31.443Z" fill="#F7F8FA"/>
</svg>
