<svg width="24" height="24" viewBox="0 0 24 24" fill="none" xmlns="http://www.w3.org/2000/svg">
<path d="M1.68555 21V3H11.6855V7H21.6855V21H1.68555ZM3.68555 19H5.68555V17H3.68555V19ZM3.68555 15H5.68555V13H3.68555V15ZM3.68555 11H5.68555V9H3.68555V11ZM3.68555 7H5.68555V5H3.68555V7ZM7.68555 19H9.68555V17H7.68555V19ZM7.68555 15H9.68555V13H7.68555V15ZM7.68555 11H9.68555V9H7.68555V11ZM7.68555 7H9.68555V5H7.68555V7ZM11.6855 19H19.6855V9H11.6855V11H13.6855V13H11.6855V15H13.6855V17H11.6855V19ZM15.6855 13V11H17.6855V13H15.6855ZM15.6855 17V15H17.6855V17H15.6855Z" fill="#195AA7"/>
</svg>
